<?xml version="1.0" encoding="utf-8"?>
<!-- Generator: Adobe Illustrator 21.1.0, SVG Export Plug-In . SVG Version: 6.00 Build 0)  -->
<svg version="1.1" id="Layer_1" xmlns="http://www.w3.org/2000/svg" xmlns:xlink="http://www.w3.org/1999/xlink" x="0px" y="0px"
	 viewBox="0 0 1920 1080" style="enable-background:new 0 0 1920 1080;" xml:space="preserve">
<style type="text/css">
	.st0{clip-path:url(#SVGID_2_);fill:none;stroke:#3388CB;stroke-width:6;}
	.st1{clip-path:url(#SVGID_4_);fill:none;stroke:#3388CB;stroke-width:3;}
	.st2{clip-path:url(#SVGID_6_);fill:none;stroke:#3388CB;stroke-width:3;}
	.st3{clip-path:url(#SVGID_8_);fill:none;stroke:#3388CB;stroke-width:3;}
	.st4{clip-path:url(#SVGID_10_);fill:none;stroke:#3388CB;stroke-width:3;}
	.st5{clip-path:url(#SVGID_12_);fill:none;stroke:#3388CB;stroke-width:3;}
	.st6{clip-path:url(#SVGID_14_);fill:none;stroke:#3388CB;stroke-width:6;}
	.st7{clip-path:url(#SVGID_16_);fill:none;stroke:#3388CB;stroke-width:3;}
	.st8{clip-path:url(#SVGID_18_);fill:none;stroke:#3388CB;stroke-width:3;}
	.st9{clip-path:url(#SVGID_20_);fill:none;stroke:#3388CB;stroke-width:3;}
	.st10{clip-path:url(#SVGID_22_);fill:none;stroke:#3388CB;stroke-width:3;}
	.st11{clip-path:url(#SVGID_24_);fill:none;stroke:#3388CB;stroke-width:3;}
	.st12{clip-path:url(#SVGID_26_);fill:none;stroke:#3388CB;stroke-width:6;}
	.st13{clip-path:url(#SVGID_28_);fill:none;stroke:#3388CB;stroke-width:3;}
	.st14{clip-path:url(#SVGID_30_);fill:none;stroke:#3388CB;stroke-width:3;}
	.st15{clip-path:url(#SVGID_32_);fill:none;stroke:#3388CB;stroke-width:3;}
	.st16{clip-path:url(#SVGID_34_);fill:none;stroke:#3388CB;stroke-width:3;}
	.st17{clip-path:url(#SVGID_36_);fill:none;stroke:#3388CB;stroke-width:3;}
	.st18{clip-path:url(#SVGID_38_);fill:none;stroke:#3388CB;stroke-width:6;}
	.st19{clip-path:url(#SVGID_40_);fill:none;stroke:#3388CB;stroke-width:3;}
	.st20{clip-path:url(#SVGID_42_);fill:none;stroke:#3388CB;stroke-width:3;}
	.st21{clip-path:url(#SVGID_44_);fill:none;stroke:#3388CB;stroke-width:3;}
	.st22{clip-path:url(#SVGID_46_);fill:none;stroke:#3388CB;stroke-width:3;}
	.st23{clip-path:url(#SVGID_48_);fill:none;stroke:#3388CB;stroke-width:3;}
	.st24{clip-path:url(#SVGID_50_);fill:none;stroke:#3388CB;stroke-width:6;}
	.st25{clip-path:url(#SVGID_52_);fill:none;stroke:#3388CB;stroke-width:3;}
	.st26{clip-path:url(#SVGID_54_);fill:none;stroke:#3388CB;stroke-width:3;}
	.st27{clip-path:url(#SVGID_56_);fill:none;stroke:#3388CB;stroke-width:3;}
	.st28{clip-path:url(#SVGID_58_);fill:none;stroke:#3388CB;stroke-width:3;}
	.st29{clip-path:url(#SVGID_60_);fill:none;stroke:#3388CB;stroke-width:3;}
	.st30{clip-path:url(#SVGID_62_);fill:none;stroke:#3388CB;stroke-width:6;}
	.st31{clip-path:url(#SVGID_64_);fill:none;stroke:#3388CB;stroke-width:3;}
	.st32{clip-path:url(#SVGID_66_);fill:none;stroke:#3388CB;stroke-width:3;}
	.st33{clip-path:url(#SVGID_68_);fill:none;stroke:#3388CB;stroke-width:3;}
	.st34{clip-path:url(#SVGID_70_);fill:none;stroke:#3388CB;stroke-width:3;}
	.st35{clip-path:url(#SVGID_72_);fill:none;stroke:#3388CB;stroke-width:3;}
	.st36{clip-path:url(#SVGID_74_);fill:none;stroke:#3388CB;stroke-width:6;}
	.st37{clip-path:url(#SVGID_76_);fill:none;stroke:#3388CB;stroke-width:3;}
	.st38{clip-path:url(#SVGID_78_);fill:none;stroke:#3388CB;stroke-width:3;}
	.st39{clip-path:url(#SVGID_80_);fill:none;stroke:#3388CB;stroke-width:3;}
	.st40{clip-path:url(#SVGID_82_);fill:none;stroke:#3388CB;stroke-width:3;}
	.st41{clip-path:url(#SVGID_84_);fill:none;stroke:#3388CB;stroke-width:3;}
	.st42{clip-path:url(#SVGID_86_);fill:none;stroke:#3388CB;stroke-width:3;}
	.st43{clip-path:url(#SVGID_88_);fill:none;stroke:#3388CB;stroke-width:3;}
	.st44{clip-path:url(#SVGID_90_);fill:none;stroke:#3388CB;stroke-width:3;}
	.st45{clip-path:url(#SVGID_92_);fill:none;stroke:#3388CB;stroke-width:3;}
	.st46{clip-path:url(#SVGID_94_);fill:none;stroke:#3388CB;stroke-width:3;}
	.st47{clip-path:url(#SVGID_96_);fill:none;stroke:#3388CB;stroke-width:3;}
	.st48{clip-path:url(#SVGID_98_);fill:none;stroke:#3388CB;stroke-width:3;}
	.st49{clip-path:url(#SVGID_100_);fill:none;stroke:#3388CB;stroke-width:3;}
	.st50{clip-path:url(#SVGID_102_);fill:none;stroke:#3388CB;stroke-width:6;}
	.st51{clip-path:url(#SVGID_104_);fill:none;stroke:#3388CB;stroke-width:3;}
	.st52{clip-path:url(#SVGID_106_);fill:none;stroke:#3388CB;stroke-width:3;}
	.st53{clip-path:url(#SVGID_108_);fill:none;stroke:#3388CB;stroke-width:3;}
	.st54{clip-path:url(#SVGID_110_);fill:none;stroke:#3388CB;stroke-width:3;}
	.st55{clip-path:url(#SVGID_112_);fill:none;stroke:#3388CB;stroke-width:3;}
	.st56{clip-path:url(#SVGID_114_);fill:none;stroke:#3388CB;stroke-width:6;}
	.st57{clip-path:url(#SVGID_116_);fill:none;stroke:#3388CB;stroke-width:3;}
	.st58{clip-path:url(#SVGID_118_);fill:none;stroke:#3388CB;stroke-width:3;}
	.st59{clip-path:url(#SVGID_120_);fill:none;stroke:#3388CB;stroke-width:3;}
	.st60{clip-path:url(#SVGID_122_);fill:none;stroke:#3388CB;stroke-width:3;}
	.st61{clip-path:url(#SVGID_124_);fill:none;stroke:#3388CB;stroke-width:3;}
	.st62{clip-path:url(#SVGID_126_);fill:none;stroke:#3388CB;stroke-width:6;}
	.st63{clip-path:url(#SVGID_128_);fill:none;stroke:#3388CB;stroke-width:3;}
	.st64{clip-path:url(#SVGID_130_);fill:none;stroke:#3388CB;stroke-width:3;}
	.st65{clip-path:url(#SVGID_132_);fill:none;stroke:#3388CB;stroke-width:3;}
	.st66{clip-path:url(#SVGID_134_);fill:none;stroke:#3388CB;stroke-width:3;}
	.st67{clip-path:url(#SVGID_136_);fill:none;stroke:#3388CB;stroke-width:3;}
	.st68{clip-path:url(#SVGID_138_);fill:none;stroke:#3388CB;stroke-width:6;}
	.st69{clip-path:url(#SVGID_140_);fill:none;stroke:#3388CB;stroke-width:3;}
	.st70{clip-path:url(#SVGID_142_);fill:none;stroke:#3388CB;stroke-width:3;}
	.st71{clip-path:url(#SVGID_144_);fill:none;stroke:#3388CB;stroke-width:3;}
	.st72{clip-path:url(#SVGID_146_);fill:none;stroke:#3388CB;stroke-width:3;}
	.st73{clip-path:url(#SVGID_148_);fill:none;stroke:#3388CB;stroke-width:3;}
	.st74{clip-path:url(#SVGID_150_);fill:none;stroke:#3388CB;stroke-width:6;}
	.st75{clip-path:url(#SVGID_152_);fill:none;stroke:#3388CB;stroke-width:3;}
	.st76{clip-path:url(#SVGID_154_);fill:none;stroke:#3388CB;stroke-width:3;}
	.st77{clip-path:url(#SVGID_156_);fill:none;stroke:#3388CB;stroke-width:3;}
	.st78{clip-path:url(#SVGID_158_);fill:none;stroke:#3388CB;stroke-width:3;}
	.st79{clip-path:url(#SVGID_160_);fill:none;stroke:#3388CB;stroke-width:3;}
	.st80{clip-path:url(#SVGID_162_);fill:none;stroke:#3388CB;stroke-width:6;}
	.st81{clip-path:url(#SVGID_164_);fill:none;stroke:#3388CB;stroke-width:3;}
	.st82{clip-path:url(#SVGID_166_);fill:none;stroke:#3388CB;stroke-width:3;}
	.st83{clip-path:url(#SVGID_168_);fill:none;stroke:#3388CB;stroke-width:3;}
	.st84{clip-path:url(#SVGID_170_);fill:none;stroke:#3388CB;stroke-width:3;}
	.st85{clip-path:url(#SVGID_172_);fill:none;stroke:#3388CB;stroke-width:3;}
	.st86{clip-path:url(#SVGID_174_);fill:none;stroke:#3388CB;stroke-width:6;}
	.st87{clip-path:url(#SVGID_176_);fill:none;stroke:#3388CB;stroke-width:3;}
	.st88{clip-path:url(#SVGID_178_);fill:none;stroke:#3388CB;stroke-width:3;}
	.st89{clip-path:url(#SVGID_180_);fill:none;stroke:#3388CB;stroke-width:3;}
	.st90{clip-path:url(#SVGID_182_);fill:none;stroke:#3388CB;stroke-width:3;}
	.st91{clip-path:url(#SVGID_184_);fill:none;stroke:#3388CB;stroke-width:3;}
	.st92{clip-path:url(#SVGID_186_);fill:none;stroke:#3388CB;stroke-width:3;}
	.st93{clip-path:url(#SVGID_188_);fill:none;stroke:#3388CB;stroke-width:3;}
	.st94{clip-path:url(#SVGID_190_);fill:none;stroke:#3388CB;stroke-width:3;}
	.st95{clip-path:url(#SVGID_192_);fill:none;stroke:#3388CB;stroke-width:3;}
	.st96{clip-path:url(#SVGID_194_);fill:none;stroke:#3388CB;stroke-width:3;}
	.st97{clip-path:url(#SVGID_196_);fill:none;stroke:#3388CB;stroke-width:3;}
	.st98{clip-path:url(#SVGID_198_);fill:none;stroke:#3388CB;stroke-width:6;}
	.st99{clip-path:url(#SVGID_200_);fill:none;stroke:#3388CB;stroke-width:3;}
	.st100{clip-path:url(#SVGID_202_);fill:none;stroke:#3388CB;stroke-width:3;}
	.st101{clip-path:url(#SVGID_204_);fill:none;stroke:#3388CB;stroke-width:3;}
	.st102{clip-path:url(#SVGID_206_);fill:none;stroke:#3388CB;stroke-width:3;}
	.st103{clip-path:url(#SVGID_208_);fill:none;stroke:#3388CB;stroke-width:3;}
	.st104{clip-path:url(#SVGID_210_);fill:none;stroke:#3388CB;stroke-width:3;}
	.st105{clip-path:url(#SVGID_210_);fill:none;stroke:#3388CB;}
	.st106{clip-path:url(#SVGID_212_);}
	.st107{font-family:'ArialMT';}
	.st108{font-size:9px;}
</style>
<g>
	<defs>
		<rect id="SVGID_1_" x="1073" y="279.1" width="51.2" height="76.9"/>
	</defs>
	<clipPath id="SVGID_2_">
		<use xlink:href="#SVGID_1_"  style="overflow:visible;"/>
	</clipPath>
	<rect x="1077" y="283.1" class="st0" width="43.2" height="68.9"/>
</g>
<g>
	<defs>
		<rect id="SVGID_3_" x="1058.7" y="260.5" width="79.8" height="87.1"/>
	</defs>
	<clipPath id="SVGID_4_">
		<use xlink:href="#SVGID_3_"  style="overflow:visible;"/>
	</clipPath>
	<rect x="1061.2" y="263" class="st1" width="74.8" height="82.1"/>
</g>
<g>
	<defs>
		<rect id="SVGID_5_" x="1063.7" y="264.8" width="37.4" height="15.7"/>
	</defs>
	<clipPath id="SVGID_6_">
		<use xlink:href="#SVGID_5_"  style="overflow:visible;"/>
	</clipPath>
	<rect x="1066.2" y="267.3" class="st2" width="32.4" height="10.7"/>
</g>
<g>
	<defs>
		<rect id="SVGID_7_" x="1096.2" y="264.8" width="37.4" height="15.7"/>
	</defs>
	<clipPath id="SVGID_8_">
		<use xlink:href="#SVGID_7_"  style="overflow:visible;"/>
	</clipPath>
	<rect x="1098.7" y="267.3" class="st3" width="32.4" height="10.7"/>
</g>
<g>
	<defs>
		<rect id="SVGID_9_" x="1063.7" y="280.8" width="10.1" height="55.7"/>
	</defs>
	<clipPath id="SVGID_10_">
		<use xlink:href="#SVGID_9_"  style="overflow:visible;"/>
	</clipPath>
	<rect x="1066.2" y="283.3" class="st4" width="5.1" height="50.7"/>
</g>
<g>
	<defs>
		<rect id="SVGID_11_" x="1123.4" y="280.8" width="10.1" height="55.7"/>
	</defs>
	<clipPath id="SVGID_12_">
		<use xlink:href="#SVGID_11_"  style="overflow:visible;"/>
	</clipPath>
	<rect x="1125.9" y="283.3" class="st5" width="5.1" height="50.7"/>
</g>
<g>
	<defs>
		<rect id="SVGID_13_" x="985.5" y="279.1" width="51.2" height="76.9"/>
	</defs>
	<clipPath id="SVGID_14_">
		<use xlink:href="#SVGID_13_"  style="overflow:visible;"/>
	</clipPath>
	<rect x="989.5" y="283.1" class="st6" width="43.2" height="68.9"/>
</g>
<g>
	<defs>
		<rect id="SVGID_15_" x="971.3" y="260.5" width="79.8" height="87.1"/>
	</defs>
	<clipPath id="SVGID_16_">
		<use xlink:href="#SVGID_15_"  style="overflow:visible;"/>
	</clipPath>
	<rect x="973.8" y="263" class="st7" width="74.8" height="82.1"/>
</g>
<g>
	<defs>
		<rect id="SVGID_17_" x="976.2" y="264.8" width="37.4" height="15.7"/>
	</defs>
	<clipPath id="SVGID_18_">
		<use xlink:href="#SVGID_17_"  style="overflow:visible;"/>
	</clipPath>
	<rect x="978.7" y="267.3" class="st8" width="32.4" height="10.7"/>
</g>
<g>
	<defs>
		<rect id="SVGID_19_" x="1008.7" y="264.8" width="37.4" height="15.7"/>
	</defs>
	<clipPath id="SVGID_20_">
		<use xlink:href="#SVGID_19_"  style="overflow:visible;"/>
	</clipPath>
	<rect x="1011.2" y="267.3" class="st9" width="32.4" height="10.7"/>
</g>
<g>
	<defs>
		<rect id="SVGID_21_" x="976.3" y="280.8" width="10.1" height="55.7"/>
	</defs>
	<clipPath id="SVGID_22_">
		<use xlink:href="#SVGID_21_"  style="overflow:visible;"/>
	</clipPath>
	<rect x="978.8" y="283.3" class="st10" width="5.1" height="50.7"/>
</g>
<g>
	<defs>
		<rect id="SVGID_23_" x="1036" y="280.8" width="10.1" height="55.7"/>
	</defs>
	<clipPath id="SVGID_24_">
		<use xlink:href="#SVGID_23_"  style="overflow:visible;"/>
	</clipPath>
	<rect x="1038.5" y="283.3" class="st11" width="5.1" height="50.7"/>
</g>
<g>
	<defs>
		<rect id="SVGID_25_" x="898.1" y="279.1" width="51.2" height="76.9"/>
	</defs>
	<clipPath id="SVGID_26_">
		<use xlink:href="#SVGID_25_"  style="overflow:visible;"/>
	</clipPath>
	<rect x="902.1" y="283.1" class="st12" width="43.2" height="68.9"/>
</g>
<g>
	<defs>
		<rect id="SVGID_27_" x="883.8" y="260.5" width="79.8" height="87.1"/>
	</defs>
	<clipPath id="SVGID_28_">
		<use xlink:href="#SVGID_27_"  style="overflow:visible;"/>
	</clipPath>
	<rect x="886.3" y="263" class="st13" width="74.8" height="82.1"/>
</g>
<g>
	<defs>
		<rect id="SVGID_29_" x="888.7" y="264.8" width="37.4" height="15.7"/>
	</defs>
	<clipPath id="SVGID_30_">
		<use xlink:href="#SVGID_29_"  style="overflow:visible;"/>
	</clipPath>
	<rect x="891.2" y="267.3" class="st14" width="32.4" height="10.7"/>
</g>
<g>
	<defs>
		<rect id="SVGID_31_" x="921.2" y="264.8" width="37.4" height="15.7"/>
	</defs>
	<clipPath id="SVGID_32_">
		<use xlink:href="#SVGID_31_"  style="overflow:visible;"/>
	</clipPath>
	<rect x="923.7" y="267.3" class="st15" width="32.4" height="10.7"/>
</g>
<g>
	<defs>
		<rect id="SVGID_33_" x="888.8" y="280.8" width="10.1" height="55.7"/>
	</defs>
	<clipPath id="SVGID_34_">
		<use xlink:href="#SVGID_33_"  style="overflow:visible;"/>
	</clipPath>
	<rect x="891.3" y="283.3" class="st16" width="5.1" height="50.7"/>
</g>
<g>
	<defs>
		<rect id="SVGID_35_" x="948.5" y="280.8" width="10.1" height="55.7"/>
	</defs>
	<clipPath id="SVGID_36_">
		<use xlink:href="#SVGID_35_"  style="overflow:visible;"/>
	</clipPath>
	<rect x="951" y="283.3" class="st17" width="5.1" height="50.7"/>
</g>
<g>
	<defs>
		<rect id="SVGID_37_" x="1248" y="279.1" width="51.2" height="76.9"/>
	</defs>
	<clipPath id="SVGID_38_">
		<use xlink:href="#SVGID_37_"  style="overflow:visible;"/>
	</clipPath>
	<rect x="1252" y="283.1" class="st18" width="43.2" height="68.9"/>
</g>
<g>
	<defs>
		<rect id="SVGID_39_" x="1233.7" y="260.5" width="79.8" height="87.1"/>
	</defs>
	<clipPath id="SVGID_40_">
		<use xlink:href="#SVGID_39_"  style="overflow:visible;"/>
	</clipPath>
	<rect x="1236.2" y="263" class="st19" width="74.8" height="82.1"/>
</g>
<g>
	<defs>
		<rect id="SVGID_41_" x="1238.6" y="264.8" width="37.4" height="15.7"/>
	</defs>
	<clipPath id="SVGID_42_">
		<use xlink:href="#SVGID_41_"  style="overflow:visible;"/>
	</clipPath>
	<rect x="1241.1" y="267.3" class="st20" width="32.4" height="10.7"/>
</g>
<g>
	<defs>
		<rect id="SVGID_43_" x="1271.1" y="264.8" width="37.4" height="15.7"/>
	</defs>
	<clipPath id="SVGID_44_">
		<use xlink:href="#SVGID_43_"  style="overflow:visible;"/>
	</clipPath>
	<rect x="1273.6" y="267.3" class="st21" width="32.4" height="10.7"/>
</g>
<g>
	<defs>
		<rect id="SVGID_45_" x="1238.7" y="280.8" width="10.1" height="55.7"/>
	</defs>
	<clipPath id="SVGID_46_">
		<use xlink:href="#SVGID_45_"  style="overflow:visible;"/>
	</clipPath>
	<rect x="1241.2" y="283.3" class="st22" width="5.1" height="50.7"/>
</g>
<g>
	<defs>
		<rect id="SVGID_47_" x="1298.4" y="280.8" width="10.1" height="55.7"/>
	</defs>
	<clipPath id="SVGID_48_">
		<use xlink:href="#SVGID_47_"  style="overflow:visible;"/>
	</clipPath>
	<rect x="1300.9" y="283.3" class="st23" width="5.1" height="50.7"/>
</g>
<g>
	<defs>
		<rect id="SVGID_49_" x="1160.5" y="279.1" width="51.2" height="76.9"/>
	</defs>
	<clipPath id="SVGID_50_">
		<use xlink:href="#SVGID_49_"  style="overflow:visible;"/>
	</clipPath>
	<rect x="1164.5" y="283.1" class="st24" width="43.2" height="68.9"/>
</g>
<g>
	<defs>
		<rect id="SVGID_51_" x="1146.2" y="260.5" width="79.8" height="87.1"/>
	</defs>
	<clipPath id="SVGID_52_">
		<use xlink:href="#SVGID_51_"  style="overflow:visible;"/>
	</clipPath>
	<rect x="1148.7" y="263" class="st25" width="74.8" height="82.1"/>
</g>
<g>
	<defs>
		<rect id="SVGID_53_" x="1151.1" y="264.8" width="37.4" height="15.7"/>
	</defs>
	<clipPath id="SVGID_54_">
		<use xlink:href="#SVGID_53_"  style="overflow:visible;"/>
	</clipPath>
	<rect x="1153.6" y="267.3" class="st26" width="32.4" height="10.7"/>
</g>
<g>
	<defs>
		<rect id="SVGID_55_" x="1183.6" y="264.8" width="37.4" height="15.7"/>
	</defs>
	<clipPath id="SVGID_56_">
		<use xlink:href="#SVGID_55_"  style="overflow:visible;"/>
	</clipPath>
	<rect x="1186.1" y="267.3" class="st27" width="32.4" height="10.7"/>
</g>
<g>
	<defs>
		<rect id="SVGID_57_" x="1151.2" y="280.8" width="10.1" height="55.7"/>
	</defs>
	<clipPath id="SVGID_58_">
		<use xlink:href="#SVGID_57_"  style="overflow:visible;"/>
	</clipPath>
	<rect x="1153.7" y="283.3" class="st28" width="5.1" height="50.7"/>
</g>
<g>
	<defs>
		<rect id="SVGID_59_" x="1210.9" y="280.8" width="10.1" height="55.7"/>
	</defs>
	<clipPath id="SVGID_60_">
		<use xlink:href="#SVGID_59_"  style="overflow:visible;"/>
	</clipPath>
	<rect x="1213.4" y="283.3" class="st29" width="5.1" height="50.7"/>
</g>
<g>
	<defs>
		<rect id="SVGID_61_" x="1248" y="172" width="51.2" height="76.9"/>
	</defs>
	<clipPath id="SVGID_62_">
		<use xlink:href="#SVGID_61_"  style="overflow:visible;"/>
	</clipPath>
	<rect x="1252" y="176" class="st30" width="43.2" height="68.9"/>
</g>
<g>
	<defs>
		<rect id="SVGID_63_" x="1233.7" y="153.4" width="79.8" height="87.1"/>
	</defs>
	<clipPath id="SVGID_64_">
		<use xlink:href="#SVGID_63_"  style="overflow:visible;"/>
	</clipPath>
	<rect x="1236.2" y="155.9" class="st31" width="74.8" height="82.1"/>
</g>
<g>
	<defs>
		<rect id="SVGID_65_" x="1238.6" y="157.7" width="37.4" height="15.7"/>
	</defs>
	<clipPath id="SVGID_66_">
		<use xlink:href="#SVGID_65_"  style="overflow:visible;"/>
	</clipPath>
	<rect x="1241.1" y="160.2" class="st32" width="32.4" height="10.7"/>
</g>
<g>
	<defs>
		<rect id="SVGID_67_" x="1271.1" y="157.7" width="37.4" height="15.7"/>
	</defs>
	<clipPath id="SVGID_68_">
		<use xlink:href="#SVGID_67_"  style="overflow:visible;"/>
	</clipPath>
	<rect x="1273.6" y="160.2" class="st33" width="32.4" height="10.7"/>
</g>
<g>
	<defs>
		<rect id="SVGID_69_" x="1238.7" y="173.8" width="10.1" height="55.7"/>
	</defs>
	<clipPath id="SVGID_70_">
		<use xlink:href="#SVGID_69_"  style="overflow:visible;"/>
	</clipPath>
	<rect x="1241.2" y="176.3" class="st34" width="5.1" height="50.7"/>
</g>
<g>
	<defs>
		<rect id="SVGID_71_" x="1298.4" y="173.8" width="10.1" height="55.7"/>
	</defs>
	<clipPath id="SVGID_72_">
		<use xlink:href="#SVGID_71_"  style="overflow:visible;"/>
	</clipPath>
	<rect x="1300.9" y="176.3" class="st35" width="5.1" height="50.7"/>
</g>
<g>
	<defs>
		<rect id="SVGID_73_" x="1160.5" y="172" width="51.2" height="76.9"/>
	</defs>
	<clipPath id="SVGID_74_">
		<use xlink:href="#SVGID_73_"  style="overflow:visible;"/>
	</clipPath>
	<rect x="1164.5" y="176" class="st36" width="43.2" height="68.9"/>
</g>
<g>
	<defs>
		<rect id="SVGID_75_" x="1146.2" y="153.4" width="79.8" height="87.1"/>
	</defs>
	<clipPath id="SVGID_76_">
		<use xlink:href="#SVGID_75_"  style="overflow:visible;"/>
	</clipPath>
	<rect x="1148.7" y="155.9" class="st37" width="74.8" height="82.1"/>
</g>
<g>
	<defs>
		<rect id="SVGID_77_" x="1151.1" y="157.7" width="37.4" height="15.7"/>
	</defs>
	<clipPath id="SVGID_78_">
		<use xlink:href="#SVGID_77_"  style="overflow:visible;"/>
	</clipPath>
	<rect x="1153.6" y="160.2" class="st38" width="32.4" height="10.7"/>
</g>
<g>
	<defs>
		<rect id="SVGID_79_" x="1183.6" y="157.7" width="37.4" height="15.7"/>
	</defs>
	<clipPath id="SVGID_80_">
		<use xlink:href="#SVGID_79_"  style="overflow:visible;"/>
	</clipPath>
	<rect x="1186.1" y="160.2" class="st39" width="32.4" height="10.7"/>
</g>
<g>
	<defs>
		<rect id="SVGID_81_" x="1151.2" y="173.8" width="10.1" height="55.7"/>
	</defs>
	<clipPath id="SVGID_82_">
		<use xlink:href="#SVGID_81_"  style="overflow:visible;"/>
	</clipPath>
	<rect x="1153.7" y="176.3" class="st40" width="5.1" height="50.7"/>
</g>
<g>
	<defs>
		<rect id="SVGID_83_" x="1210.9" y="173.8" width="10.1" height="55.7"/>
	</defs>
	<clipPath id="SVGID_84_">
		<use xlink:href="#SVGID_83_"  style="overflow:visible;"/>
	</clipPath>
	<rect x="1213.4" y="176.3" class="st41" width="5.1" height="50.7"/>
</g>
<g>
	<defs>
		<rect id="SVGID_85_" x="583" y="77" width="1024" height="1024"/>
	</defs>
	<clipPath id="SVGID_86_">
		<use xlink:href="#SVGID_85_"  style="overflow:visible;"/>
	</clipPath>
	<rect x="867.3" y="134.4" class="st42" width="455.4" height="860.5"/>
</g>
<g>
	<defs>
		<rect id="SVGID_87_" x="953.3" y="180.9" width="10.1" height="55.7"/>
	</defs>
	<clipPath id="SVGID_88_">
		<use xlink:href="#SVGID_87_"  style="overflow:visible;"/>
	</clipPath>
	<rect x="955.8" y="183.4" class="st43" width="5.1" height="50.7"/>
</g>
<g>
	<defs>
		<rect id="SVGID_89_" x="953.3" y="154.2" width="10.1" height="23.7"/>
	</defs>
	<clipPath id="SVGID_90_">
		<use xlink:href="#SVGID_89_"  style="overflow:visible;"/>
	</clipPath>
	<rect x="955.8" y="156.7" class="st44" width="5.1" height="18.7"/>
</g>
<g>
	<defs>
		<rect id="SVGID_91_" x="966.7" y="180.6" width="10.1" height="55.7"/>
	</defs>
	<clipPath id="SVGID_92_">
		<use xlink:href="#SVGID_91_"  style="overflow:visible;"/>
	</clipPath>
	<rect x="969.2" y="183.1" class="st45" width="5.1" height="50.7"/>
</g>
<g>
	<defs>
		<rect id="SVGID_93_" x="966.7" y="153.9" width="10.1" height="23.7"/>
	</defs>
	<clipPath id="SVGID_94_">
		<use xlink:href="#SVGID_93_"  style="overflow:visible;"/>
	</clipPath>
	<rect x="969.2" y="156.4" class="st46" width="5.1" height="18.7"/>
</g>
<g>
	<defs>
		<rect id="SVGID_95_" x="869.1" y="153.1" width="79.8" height="87.1"/>
	</defs>
	<clipPath id="SVGID_96_">
		<use xlink:href="#SVGID_95_"  style="overflow:visible;"/>
	</clipPath>
	<rect x="871.6" y="155.6" class="st47" width="74.8" height="82.1"/>
</g>
<g>
	<defs>
		<rect id="SVGID_97_" x="981.1" y="153.1" width="70.2" height="87.1"/>
	</defs>
	<clipPath id="SVGID_98_">
		<use xlink:href="#SVGID_97_"  style="overflow:visible;"/>
	</clipPath>
	<rect x="983.6" y="155.6" class="st48" width="65.2" height="82.1"/>
</g>
<g>
	<defs>
		<rect id="SVGID_99_" x="583" y="77" width="1024" height="1024"/>
	</defs>
	<clipPath id="SVGID_100_">
		<use xlink:href="#SVGID_99_"  style="overflow:visible;"/>
	</clipPath>
	<rect x="955.8" y="408.2" class="st49" width="5.1" height="50.7"/>
	<rect x="955.8" y="381.5" class="st49" width="5.1" height="18.7"/>
	<rect x="969.2" y="407.9" class="st49" width="5.1" height="50.7"/>
	<rect x="969.2" y="381.2" class="st49" width="5.1" height="18.7"/>
	<rect x="955.8" y="515.2" class="st49" width="5.1" height="50.7"/>
	<rect x="955.8" y="488.4" class="st49" width="5.1" height="18.7"/>
	<rect x="969.2" y="514.9" class="st49" width="5.1" height="50.7"/>
	<rect x="969.2" y="488.1" class="st49" width="5.1" height="18.7"/>
	<rect x="955.8" y="622.1" class="st49" width="5.1" height="50.7"/>
	<rect x="955.8" y="595.4" class="st49" width="5.1" height="18.7"/>
	<rect x="969.2" y="621.8" class="st49" width="5.1" height="50.7"/>
	<rect x="969.2" y="595.1" class="st49" width="5.1" height="18.7"/>
	<rect x="955.8" y="729.1" class="st49" width="5.1" height="50.7"/>
	<rect x="955.8" y="702.3" class="st49" width="5.1" height="18.7"/>
	<rect x="969.2" y="728.8" class="st49" width="5.1" height="50.7"/>
	<rect x="969.2" y="702" class="st49" width="5.1" height="18.7"/>
</g>
<g>
	<defs>
		<rect id="SVGID_101_" x="1069.4" y="172" width="51.2" height="76.9"/>
	</defs>
	<clipPath id="SVGID_102_">
		<use xlink:href="#SVGID_101_"  style="overflow:visible;"/>
	</clipPath>
	<rect x="1073.4" y="176" class="st50" width="43.2" height="68.9"/>
</g>
<g>
	<defs>
		<rect id="SVGID_103_" x="1055.1" y="153.4" width="79.8" height="87.1"/>
	</defs>
	<clipPath id="SVGID_104_">
		<use xlink:href="#SVGID_103_"  style="overflow:visible;"/>
	</clipPath>
	<rect x="1057.6" y="155.9" class="st51" width="74.8" height="82.1"/>
</g>
<g>
	<defs>
		<rect id="SVGID_105_" x="1060.1" y="157.7" width="37.4" height="15.7"/>
	</defs>
	<clipPath id="SVGID_106_">
		<use xlink:href="#SVGID_105_"  style="overflow:visible;"/>
	</clipPath>
	<rect x="1062.6" y="160.2" class="st52" width="32.4" height="10.7"/>
</g>
<g>
	<defs>
		<rect id="SVGID_107_" x="1092.6" y="157.7" width="37.4" height="15.7"/>
	</defs>
	<clipPath id="SVGID_108_">
		<use xlink:href="#SVGID_107_"  style="overflow:visible;"/>
	</clipPath>
	<rect x="1095.1" y="160.2" class="st53" width="32.4" height="10.7"/>
</g>
<g>
	<defs>
		<rect id="SVGID_109_" x="1060.1" y="173.8" width="10.1" height="55.7"/>
	</defs>
	<clipPath id="SVGID_110_">
		<use xlink:href="#SVGID_109_"  style="overflow:visible;"/>
	</clipPath>
	<rect x="1062.6" y="176.3" class="st54" width="5.1" height="50.7"/>
</g>
<g>
	<defs>
		<rect id="SVGID_111_" x="1119.8" y="173.8" width="10.1" height="55.7"/>
	</defs>
	<clipPath id="SVGID_112_">
		<use xlink:href="#SVGID_111_"  style="overflow:visible;"/>
	</clipPath>
	<rect x="1122.3" y="176.3" class="st55" width="5.1" height="50.7"/>
</g>
<g>
	<defs>
		<rect id="SVGID_113_" x="1073" y="391.7" width="51.2" height="76.9"/>
	</defs>
	<clipPath id="SVGID_114_">
		<use xlink:href="#SVGID_113_"  style="overflow:visible;"/>
	</clipPath>
	<rect x="1077" y="395.7" class="st56" width="43.2" height="68.9"/>
</g>
<g>
	<defs>
		<rect id="SVGID_115_" x="1058.7" y="373.1" width="79.8" height="87.1"/>
	</defs>
	<clipPath id="SVGID_116_">
		<use xlink:href="#SVGID_115_"  style="overflow:visible;"/>
	</clipPath>
	<rect x="1061.2" y="375.6" class="st57" width="74.8" height="82.1"/>
</g>
<g>
	<defs>
		<rect id="SVGID_117_" x="1063.7" y="377.4" width="37.4" height="15.7"/>
	</defs>
	<clipPath id="SVGID_118_">
		<use xlink:href="#SVGID_117_"  style="overflow:visible;"/>
	</clipPath>
	<rect x="1066.2" y="379.9" class="st58" width="32.4" height="10.7"/>
</g>
<g>
	<defs>
		<rect id="SVGID_119_" x="1096.2" y="377.4" width="37.4" height="15.7"/>
	</defs>
	<clipPath id="SVGID_120_">
		<use xlink:href="#SVGID_119_"  style="overflow:visible;"/>
	</clipPath>
	<rect x="1098.7" y="379.9" class="st59" width="32.4" height="10.7"/>
</g>
<g>
	<defs>
		<rect id="SVGID_121_" x="1063.7" y="393.4" width="10.1" height="55.7"/>
	</defs>
	<clipPath id="SVGID_122_">
		<use xlink:href="#SVGID_121_"  style="overflow:visible;"/>
	</clipPath>
	<rect x="1066.2" y="395.9" class="st60" width="5.1" height="50.7"/>
</g>
<g>
	<defs>
		<rect id="SVGID_123_" x="1123.4" y="393.4" width="10.1" height="55.7"/>
	</defs>
	<clipPath id="SVGID_124_">
		<use xlink:href="#SVGID_123_"  style="overflow:visible;"/>
	</clipPath>
	<rect x="1125.9" y="395.9" class="st61" width="5.1" height="50.7"/>
</g>
<g>
	<defs>
		<rect id="SVGID_125_" x="1073" y="498.6" width="51.2" height="76.9"/>
	</defs>
	<clipPath id="SVGID_126_">
		<use xlink:href="#SVGID_125_"  style="overflow:visible;"/>
	</clipPath>
	<rect x="1077" y="502.6" class="st62" width="43.2" height="68.9"/>
</g>
<g>
	<defs>
		<rect id="SVGID_127_" x="1058.7" y="480" width="79.8" height="87.1"/>
	</defs>
	<clipPath id="SVGID_128_">
		<use xlink:href="#SVGID_127_"  style="overflow:visible;"/>
	</clipPath>
	<rect x="1061.2" y="482.5" class="st63" width="74.8" height="82.1"/>
</g>
<g>
	<defs>
		<rect id="SVGID_129_" x="1063.7" y="484.3" width="37.4" height="15.7"/>
	</defs>
	<clipPath id="SVGID_130_">
		<use xlink:href="#SVGID_129_"  style="overflow:visible;"/>
	</clipPath>
	<rect x="1066.2" y="486.8" class="st64" width="32.4" height="10.7"/>
</g>
<g>
	<defs>
		<rect id="SVGID_131_" x="1096.2" y="484.3" width="37.4" height="15.7"/>
	</defs>
	<clipPath id="SVGID_132_">
		<use xlink:href="#SVGID_131_"  style="overflow:visible;"/>
	</clipPath>
	<rect x="1098.7" y="486.8" class="st65" width="32.4" height="10.7"/>
</g>
<g>
	<defs>
		<rect id="SVGID_133_" x="1063.7" y="500.3" width="10.1" height="55.7"/>
	</defs>
	<clipPath id="SVGID_134_">
		<use xlink:href="#SVGID_133_"  style="overflow:visible;"/>
	</clipPath>
	<rect x="1066.2" y="502.8" class="st66" width="5.1" height="50.7"/>
</g>
<g>
	<defs>
		<rect id="SVGID_135_" x="1123.4" y="500.3" width="10.1" height="55.7"/>
	</defs>
	<clipPath id="SVGID_136_">
		<use xlink:href="#SVGID_135_"  style="overflow:visible;"/>
	</clipPath>
	<rect x="1125.9" y="502.8" class="st67" width="5.1" height="50.7"/>
</g>
<g>
	<defs>
		<rect id="SVGID_137_" x="1073" y="605.6" width="51.2" height="76.9"/>
	</defs>
	<clipPath id="SVGID_138_">
		<use xlink:href="#SVGID_137_"  style="overflow:visible;"/>
	</clipPath>
	<rect x="1077" y="609.6" class="st68" width="43.2" height="68.9"/>
</g>
<g>
	<defs>
		<rect id="SVGID_139_" x="1058.7" y="587" width="79.8" height="87.1"/>
	</defs>
	<clipPath id="SVGID_140_">
		<use xlink:href="#SVGID_139_"  style="overflow:visible;"/>
	</clipPath>
	<rect x="1061.2" y="589.5" class="st69" width="74.8" height="82.1"/>
</g>
<g>
	<defs>
		<rect id="SVGID_141_" x="1063.7" y="591.3" width="37.4" height="15.7"/>
	</defs>
	<clipPath id="SVGID_142_">
		<use xlink:href="#SVGID_141_"  style="overflow:visible;"/>
	</clipPath>
	<rect x="1066.2" y="593.8" class="st70" width="32.4" height="10.7"/>
</g>
<g>
	<defs>
		<rect id="SVGID_143_" x="1096.2" y="591.3" width="37.4" height="15.7"/>
	</defs>
	<clipPath id="SVGID_144_">
		<use xlink:href="#SVGID_143_"  style="overflow:visible;"/>
	</clipPath>
	<rect x="1098.7" y="593.8" class="st71" width="32.4" height="10.7"/>
</g>
<g>
	<defs>
		<rect id="SVGID_145_" x="1063.7" y="607.3" width="10.1" height="55.7"/>
	</defs>
	<clipPath id="SVGID_146_">
		<use xlink:href="#SVGID_145_"  style="overflow:visible;"/>
	</clipPath>
	<rect x="1066.2" y="609.8" class="st72" width="5.1" height="50.7"/>
</g>
<g>
	<defs>
		<rect id="SVGID_147_" x="1123.4" y="607.3" width="10.1" height="55.7"/>
	</defs>
	<clipPath id="SVGID_148_">
		<use xlink:href="#SVGID_147_"  style="overflow:visible;"/>
	</clipPath>
	<rect x="1125.9" y="609.8" class="st73" width="5.1" height="50.7"/>
</g>
<g>
	<defs>
		<rect id="SVGID_149_" x="1073" y="712.5" width="51.2" height="76.9"/>
	</defs>
	<clipPath id="SVGID_150_">
		<use xlink:href="#SVGID_149_"  style="overflow:visible;"/>
	</clipPath>
	<rect x="1077" y="716.5" class="st74" width="43.2" height="68.9"/>
</g>
<g>
	<defs>
		<rect id="SVGID_151_" x="1058.7" y="693.9" width="79.8" height="87.1"/>
	</defs>
	<clipPath id="SVGID_152_">
		<use xlink:href="#SVGID_151_"  style="overflow:visible;"/>
	</clipPath>
	<rect x="1061.2" y="696.4" class="st75" width="74.8" height="82.1"/>
</g>
<g>
	<defs>
		<rect id="SVGID_153_" x="1063.7" y="698.2" width="37.4" height="15.7"/>
	</defs>
	<clipPath id="SVGID_154_">
		<use xlink:href="#SVGID_153_"  style="overflow:visible;"/>
	</clipPath>
	<rect x="1066.2" y="700.7" class="st76" width="32.4" height="10.7"/>
</g>
<g>
	<defs>
		<rect id="SVGID_155_" x="1096.2" y="698.2" width="37.4" height="15.7"/>
	</defs>
	<clipPath id="SVGID_156_">
		<use xlink:href="#SVGID_155_"  style="overflow:visible;"/>
	</clipPath>
	<rect x="1098.7" y="700.7" class="st77" width="32.4" height="10.7"/>
</g>
<g>
	<defs>
		<rect id="SVGID_157_" x="1063.7" y="714.2" width="10.1" height="55.7"/>
	</defs>
	<clipPath id="SVGID_158_">
		<use xlink:href="#SVGID_157_"  style="overflow:visible;"/>
	</clipPath>
	<rect x="1066.2" y="716.7" class="st78" width="5.1" height="50.7"/>
</g>
<g>
	<defs>
		<rect id="SVGID_159_" x="1123.4" y="714.2" width="10.1" height="55.7"/>
	</defs>
	<clipPath id="SVGID_160_">
		<use xlink:href="#SVGID_159_"  style="overflow:visible;"/>
	</clipPath>
	<rect x="1125.9" y="716.7" class="st79" width="5.1" height="50.7"/>
</g>
<g>
	<defs>
		<rect id="SVGID_161_" x="1160.5" y="712.5" width="51.2" height="76.9"/>
	</defs>
	<clipPath id="SVGID_162_">
		<use xlink:href="#SVGID_161_"  style="overflow:visible;"/>
	</clipPath>
	<rect x="1164.5" y="716.5" class="st80" width="43.2" height="68.9"/>
</g>
<g>
	<defs>
		<rect id="SVGID_163_" x="1146.2" y="693.9" width="79.8" height="87.1"/>
	</defs>
	<clipPath id="SVGID_164_">
		<use xlink:href="#SVGID_163_"  style="overflow:visible;"/>
	</clipPath>
	<rect x="1148.7" y="696.4" class="st81" width="74.8" height="82.1"/>
</g>
<g>
	<defs>
		<rect id="SVGID_165_" x="1151.1" y="698.2" width="37.4" height="15.7"/>
	</defs>
	<clipPath id="SVGID_166_">
		<use xlink:href="#SVGID_165_"  style="overflow:visible;"/>
	</clipPath>
	<rect x="1153.6" y="700.7" class="st82" width="32.4" height="10.7"/>
</g>
<g>
	<defs>
		<rect id="SVGID_167_" x="1183.6" y="698.2" width="37.4" height="15.7"/>
	</defs>
	<clipPath id="SVGID_168_">
		<use xlink:href="#SVGID_167_"  style="overflow:visible;"/>
	</clipPath>
	<rect x="1186.1" y="700.7" class="st83" width="32.4" height="10.7"/>
</g>
<g>
	<defs>
		<rect id="SVGID_169_" x="1151.2" y="714.2" width="10.1" height="55.7"/>
	</defs>
	<clipPath id="SVGID_170_">
		<use xlink:href="#SVGID_169_"  style="overflow:visible;"/>
	</clipPath>
	<rect x="1153.7" y="716.7" class="st84" width="5.1" height="50.7"/>
</g>
<g>
	<defs>
		<rect id="SVGID_171_" x="1210.9" y="714.2" width="10.1" height="55.7"/>
	</defs>
	<clipPath id="SVGID_172_">
		<use xlink:href="#SVGID_171_"  style="overflow:visible;"/>
	</clipPath>
	<rect x="1213.4" y="716.7" class="st85" width="5.1" height="50.7"/>
</g>
<g>
	<defs>
		<rect id="SVGID_173_" x="1248" y="712.5" width="51.2" height="76.9"/>
	</defs>
	<clipPath id="SVGID_174_">
		<use xlink:href="#SVGID_173_"  style="overflow:visible;"/>
	</clipPath>
	<rect x="1252" y="716.5" class="st86" width="43.2" height="68.9"/>
</g>
<g>
	<defs>
		<rect id="SVGID_175_" x="1233.7" y="693.9" width="79.8" height="87.1"/>
	</defs>
	<clipPath id="SVGID_176_">
		<use xlink:href="#SVGID_175_"  style="overflow:visible;"/>
	</clipPath>
	<rect x="1236.2" y="696.4" class="st87" width="74.8" height="82.1"/>
</g>
<g>
	<defs>
		<rect id="SVGID_177_" x="1238.6" y="698.2" width="37.4" height="15.7"/>
	</defs>
	<clipPath id="SVGID_178_">
		<use xlink:href="#SVGID_177_"  style="overflow:visible;"/>
	</clipPath>
	<rect x="1241.1" y="700.7" class="st88" width="32.4" height="10.7"/>
</g>
<g>
	<defs>
		<rect id="SVGID_179_" x="1271.1" y="698.2" width="37.4" height="15.7"/>
	</defs>
	<clipPath id="SVGID_180_">
		<use xlink:href="#SVGID_179_"  style="overflow:visible;"/>
	</clipPath>
	<rect x="1273.6" y="700.7" class="st89" width="32.4" height="10.7"/>
</g>
<g>
	<defs>
		<rect id="SVGID_181_" x="1238.7" y="714.2" width="10.1" height="55.7"/>
	</defs>
	<clipPath id="SVGID_182_">
		<use xlink:href="#SVGID_181_"  style="overflow:visible;"/>
	</clipPath>
	<rect x="1241.2" y="716.7" class="st90" width="5.1" height="50.7"/>
</g>
<g>
	<defs>
		<rect id="SVGID_183_" x="1298.4" y="714.2" width="10.1" height="55.7"/>
	</defs>
	<clipPath id="SVGID_184_">
		<use xlink:href="#SVGID_183_"  style="overflow:visible;"/>
	</clipPath>
	<rect x="1300.9" y="716.7" class="st91" width="5.1" height="50.7"/>
</g>
<g>
	<defs>
		<rect id="SVGID_185_" x="583" y="77" width="1024" height="1024"/>
	</defs>
	<clipPath id="SVGID_186_">
		<use xlink:href="#SVGID_185_"  style="overflow:visible;"/>
	</clipPath>
	<rect x="1236.4" y="408.1" class="st92" width="5.1" height="50.7"/>
	<rect x="1236.4" y="381.3" class="st92" width="5.1" height="18.7"/>
	<rect x="1236.4" y="515" class="st92" width="5.1" height="50.7"/>
	<rect x="1236.4" y="488.3" class="st92" width="5.1" height="18.7"/>
	<rect x="1236.4" y="622" class="st92" width="5.1" height="50.7"/>
	<rect x="1236.4" y="595.2" class="st92" width="5.1" height="18.7"/>
	<rect x="871.6" y="376.6" class="st92" width="74.8" height="82.1"/>
	<rect x="983.6" y="376.6" class="st92" width="65.2" height="82.1"/>
</g>
<g>
	<defs>
		<rect id="SVGID_187_" x="869" y="481.1" width="79.8" height="87.1"/>
	</defs>
	<clipPath id="SVGID_188_">
		<use xlink:href="#SVGID_187_"  style="overflow:visible;"/>
	</clipPath>
	<rect x="871.5" y="483.6" class="st93" width="74.8" height="82.1"/>
</g>
<g>
	<defs>
		<rect id="SVGID_189_" x="981" y="481.1" width="70.2" height="87.1"/>
	</defs>
	<clipPath id="SVGID_190_">
		<use xlink:href="#SVGID_189_"  style="overflow:visible;"/>
	</clipPath>
	<rect x="983.5" y="483.6" class="st94" width="65.2" height="82.1"/>
</g>
<g>
	<defs>
		<rect id="SVGID_191_" x="869" y="588.1" width="79.8" height="87.1"/>
	</defs>
	<clipPath id="SVGID_192_">
		<use xlink:href="#SVGID_191_"  style="overflow:visible;"/>
	</clipPath>
	<rect x="871.5" y="590.6" class="st95" width="74.8" height="82.1"/>
</g>
<g>
	<defs>
		<rect id="SVGID_193_" x="981" y="588.1" width="70.2" height="87.1"/>
	</defs>
	<clipPath id="SVGID_194_">
		<use xlink:href="#SVGID_193_"  style="overflow:visible;"/>
	</clipPath>
	<rect x="983.5" y="590.6" class="st96" width="65.2" height="82.1"/>
</g>
<g>
	<defs>
		<rect id="SVGID_195_" x="583" y="77" width="1024" height="1024"/>
	</defs>
	<clipPath id="SVGID_196_">
		<use xlink:href="#SVGID_195_"  style="overflow:visible;"/>
	</clipPath>
	<rect x="871.5" y="697.6" class="st97" width="74.8" height="82.1"/>
	<rect x="983.5" y="697.6" class="st97" width="65.2" height="82.1"/>
	<rect x="1149.7" y="375.4" class="st97" width="74.6" height="82.1"/>
	<rect x="1148.1" y="483.2" class="st97" width="74.6" height="82.1"/>
	<rect x="1148.1" y="589.8" class="st97" width="74.6" height="82.1"/>
	<rect x="1248.1" y="376.3" class="st97" width="70.7" height="82.1"/>
	<rect x="1246.5" y="484.1" class="st97" width="72.5" height="82.1"/>
	<rect x="1246.5" y="590.8" class="st97" width="72.4" height="82.1"/>
	<rect x="1061.1" y="799.2" class="st97" width="74.9" height="56"/>
	<rect x="1061.1" y="882.9" class="st97" width="74.9" height="111.8"/>
	<rect x="1148" y="799.4" class="st97" width="74.9" height="56"/>
	<rect x="1148" y="882.7" class="st97" width="74.9" height="112.1"/>
	<rect x="1042.2" y="820.3" class="st97" width="5.1" height="34.6"/>
	<rect x="1042.2" y="798.6" class="st97" width="5.1" height="16.3"/>
	<rect x="971.7" y="799" class="st97" width="65.2" height="56.4"/>
</g>
<g>
	<defs>
		<rect id="SVGID_197_" x="895.7" y="815.3" width="52.9" height="37.3"/>
	</defs>
	<clipPath id="SVGID_198_">
		<use xlink:href="#SVGID_197_"  style="overflow:visible;"/>
	</clipPath>
	<rect x="899.7" y="819.3" class="st98" width="44.9" height="29.3"/>
</g>
<g>
	<defs>
		<rect id="SVGID_199_" x="880.8" y="796.7" width="82.7" height="61"/>
	</defs>
	<clipPath id="SVGID_200_">
		<use xlink:href="#SVGID_199_"  style="overflow:visible;"/>
	</clipPath>
	<rect x="883.3" y="799.2" class="st99" width="77.7" height="56"/>
</g>
<g>
	<defs>
		<rect id="SVGID_201_" x="885.9" y="801" width="38.7" height="15.7"/>
	</defs>
	<clipPath id="SVGID_202_">
		<use xlink:href="#SVGID_201_"  style="overflow:visible;"/>
	</clipPath>
	<rect x="888.4" y="803.5" class="st100" width="33.7" height="10.7"/>
</g>
<g>
	<defs>
		<rect id="SVGID_203_" x="919.7" y="801" width="38.7" height="15.7"/>
	</defs>
	<clipPath id="SVGID_204_">
		<use xlink:href="#SVGID_203_"  style="overflow:visible;"/>
	</clipPath>
	<rect x="922.2" y="803.5" class="st101" width="33.7" height="10.7"/>
</g>
<g>
	<defs>
		<rect id="SVGID_205_" x="886" y="817" width="10.3" height="35.5"/>
	</defs>
	<clipPath id="SVGID_206_">
		<use xlink:href="#SVGID_205_"  style="overflow:visible;"/>
	</clipPath>
	<rect x="888.5" y="819.5" class="st102" width="5.3" height="30.5"/>
</g>
<g>
	<defs>
		<rect id="SVGID_207_" x="948.1" y="817" width="10.3" height="35.8"/>
	</defs>
	<clipPath id="SVGID_208_">
		<use xlink:href="#SVGID_207_"  style="overflow:visible;"/>
	</clipPath>
	<rect x="950.6" y="819.5" class="st103" width="5.3" height="30.8"/>
</g>
<g>
	<defs>
		<rect id="SVGID_209_" x="583" y="77" width="1024" height="1024"/>
	</defs>
	<clipPath id="SVGID_210_">
		<use xlink:href="#SVGID_209_"  style="overflow:visible;"/>
	</clipPath>
	<rect x="972.1" y="869.4" class="st104" width="76.5" height="102.9"/>
	<rect x="883.1" y="869.8" class="st104" width="76.5" height="102.2"/>
	<rect x="1234.3" y="799.2" class="st104" width="74.9" height="56"/>
	<rect x="1061.1" y="860.9" class="st105" width="161.6" height="16.4"/>
</g>
<g>
	<defs>
		<rect id="SVGID_211_" x="1062.6" y="864.9" width="158.6" height="8"/>
	</defs>
	<clipPath id="SVGID_212_">
		<use xlink:href="#SVGID_211_"  style="overflow:visible;"/>
	</clipPath>
	<g class="st106">
		<text transform="matrix(1 0 0 1 1075 873)"><tspan x="0" y="0" class="st107 st108">F</tspan><tspan x="5" y="0" class="st107 st108">ACU</tspan><tspan x="24" y="0" class="st107 st108">LTA</tspan><tspan x="38.5" y="0" class="st107 st108">TE</tspan><tspan x="50" y="0" class="st107 st108">A</tspan><tspan x="55.5" y="0" class="st107 st108"> DE INFORM</tspan><tspan x="108.5" y="0" class="st107 st108">A</tspan><tspan x="113.9" y="0" class="st107 st108">TIC</tspan></text>
	</g>
	<path class="st106" d="M1203.3,873l2.5-6.4h0.9l2.6,6.4h-1l-0.8-2h-2.7l-0.7,2H1203.3z M1207.1,865h0.5c0,0.4-0.2,0.6-0.4,0.8
		c-0.2,0.2-0.5,0.3-0.9,0.3c-0.4,0-0.7-0.1-0.9-0.3c-0.2-0.2-0.4-0.5-0.4-0.8h0.5c0,0.2,0.1,0.3,0.2,0.4c0.1,0.1,0.3,0.1,0.5,0.1
		c0.2,0,0.4,0,0.5-0.1C1207,865.4,1207,865.2,1207.1,865z M1205.2,870.4h2.2l-0.7-1.8c-0.2-0.5-0.4-1-0.5-1.3
		c-0.1,0.4-0.2,0.8-0.3,1.2L1205.2,870.4z"/>
</g>
</svg>
